# xmcd
# 
# Track frame offsets:
#     183
#     20383
#     38120
#     48695
#     61383
#     68908
#     86895
#     103420
#     123370
#     143108
#     158320
#     169158
#     194645
#     203583
#     225970
#     247258
#     259583
#     277908
#     287520
# 
# Disc length: 4072
# 
# Revision: 6
# Processed by: cddbd v1.5.2PL0 Copyright (c) Steve Scherf et al.
# Submitted via: fre:ac v1.0.17
# 
DISCID=100fe613
DTITLE=Barbara - Vol.09 - Marienbad (1972-1973)
DYEAR=1992
DGENRE=Chanson
TTITLE0=Amours incestueuses
TTITLE1=Le bourreau
TTITLE2=Printemps
TTITLE3=Remusat
TTITLE4=Colère
TTITLE5=Perlimpinpin
TTITLE6=Accident
TTITLE7=La ligne droite
TTITLE8=Clair de nuit
TTITLE9=L'enfant laboureur
TTITLE10=Le minotaure
TTITLE11=Là-bas
TTITLE12=Les hautes mers
TTITLE13=Musique pour une absente
TTITLE14=Marienbad
TTITLE15=La louve
TTITLE16=Monsieur Capone
TTITLE17=Ma maison
TTITLE18=Je t'aime
EXTD=
EXTT0=
EXTT1=
EXTT2=
EXTT3=
EXTT4=
EXTT5=
EXTT6=
EXTT7=
EXTT8=
EXTT9=
EXTT10=
EXTT11=
EXTT12=
EXTT13=
EXTT14=
EXTT15=
EXTT16=
EXTT17=
EXTT18=
PLAYORDER=
